<svg xmlns="http://www.w3.org/2000/svg" xmlns:xlink="http://www.w3.org/1999/xlink" viewBox="0 0 5.29167 5.29167" width="20" height="20">
	<path d="M2.05598 3.87683c.28509.39873 1.15522.42753 1.45396.25846.10965-.06205.13705-.24167.13705-.36344 0-.08357-.022-.14922-.066-.19697-.0464-.04775-.16454-.16896-.30138-.20478-.69399-.17907-1.17477-.40273-1.36293-.56508-.23459-.20295-.27245-.3355-.27245-.68887 0-.35336.10161-.64953.33131-.86203.2297-.21249.56325-.31874 1.00066-.31874.41785 0 1.00552.1103 1.29205.45042l-.47771.51965c-.26942-.22619-.4698-.24662-.79968-.24663-.20771 0-.31584.02985-.40381.08953-.088.0573-.13195.13252-.13195.22563 0 .08357.0403.15281.12096.20772.0806.05731.29139.14326.7117.25786.47161.12894.79173.28533.96034.46917.16616.18384.24924.42858.24924.73419 0 .36769-.12951.67091-.38853.90967-.25658.23876-.57241.42433-1.02692.42433-.58506 0-1.36598-.20668-1.58143-.5887" />

	<path d="M2.7103.29812v.9468h.44961v-.9468zm0 4.43999v.85168h.44961V4.7381z"/>
</svg>