<svg xmlns="http://www.w3.org/2000/svg" xmlns:xlink="http://www.w3.org/1999/xlink" viewBox="0 0 9 9" width="20" height="20">
	<path d="M5.02091 8.58232C2.37281 7.42924 0 4.32932 0 2.02283c0-2.19005 1.7896-2.78665 2.60007-.8668.40787.96616.40541 1.21173-.0168 1.68106-.27195.30229-.49445.66976-.49445.8166 0 .6068 1.51964 2.33706 2.49605 2.84198.9567.49473 1.1041.49205 1.68158-.03056.58226-.52695.71914-.52826 1.70902-.01637 1.22805.63504 1.3541 1.22345.43941 2.05122-.76133.689-1.93535.7175-3.39397.08236z"/>

	<path d="M5.39415 8.65456C4.41141 8.2894 3.38424 7.594 2.47305 6.67698c-.95497-.9611-1.4134-1.60137-1.91878-2.67985C.19194 3.2239.161 3.07179.161 2.06338.161 1.04942.18381.93893.47087.56225.64129.33861.9118.12275 1.072.08254c.63726-.15995 1.39164.58925 1.6763 1.66478.13872.52413.13419.54265-.28007 1.14412-.23158.33625-.42106.67728-.42106.75783 0 .61873 1.59932 2.41866 2.59682 2.92255.78755.39783 1.08561.38035 1.71551-.1006.56732-.43319.64011-.4346 1.46047-.02816.63905.3166 1.08598.76561 1.08598 1.09104 0 .39317-.40413.9076-.91958 1.17056-.61434.31342-1.66872.29304-2.59222-.0501z"/>
</svg>