<svg xmlns="http://www.w3.org/2000/svg" xmlns:xlink="http://www.w3.org/1999/xlink" viewBox="0 0 33.4 21.2" width="33.4" height="21.2">
	<path d="M9.2 21.2a11 11 0 0 1-4.6-1.7c-.7-.5-2-1.8-2.6-2.5a15 15 0 0 1-1.5-2.8c-.4-1-.5-2.2-.5-3.6A10.3 10.3 0 0 1 7.8.3C8.7 0 9 0 10.5 0c1.5 0 1.9 0 2.6.2 1.6.4 3.2 1.2 4.3 2.2l.3.3-.5.5-1.4 1.4-.9.8-.5-.4a6.6 6.6 0 0 0-8.4.8 6.7 6.7 0 0 0-1.4 8 7 7 0 0 0 4.9 3.6c3 .6 6.2-1 7-3.7l.2-.7c0-.1-.5-.2-3-.2h-3V9.2h5c4.6 0 5 0 5 .2.2.4.2 2.6 0 3.6-.4 2.4-1.2 4-3 5.6A10 10 0 0 1 13 21c-1 .2-2.8.3-3.8.2zm18.2-7.4v-1.6h-3v-3h3v-3h3v3h3v3h-2.9v3.1h-3.1z"/>

	<path d="M9.5 21.1A10 10 0 0 1 5 19.6c-1-.6-2.8-2.4-3.5-3.5a9.7 9.7 0 0 1-1.4-4.6c0-1.2 0-3 .4-4 1-3.4 4-6.3 7.5-7.2a9 9 0 0 1 2.9-.1c2 0 2 0 3 .3 1.1.4 2.2 1 3 1.7l.7.5L16.3 4l-1.4 1.3-.4-.3a6.2 6.2 0 0 0-3.9-1.2c-2 0-3.2.5-4.7 2-.7.8-1 1.1-1.4 1.9-1 2-1 4 0 6a6.8 6.8 0 0 0 3.1 3.2 6 6 0 0 0 3 .7c2.8 0 5.1-1.5 6-3.7.2-.8.2-1 0-1.1h-5.9V9.3h4.9c4.2 0 4.8 0 5 .2l.1 1.6c0 3-.7 5-2.4 6.8a9.7 9.7 0 0 1-6.4 3.1 40.6 40.6 0 0 0-2.4 0zm17.9-7.5v-1.5h-3V9.3h3v-3h3v3h3v2.8h-1.3c-1.9 0-1.7-.1-1.7 1.6v1.5h-3z"/>
</svg>