<svg xmlns="http://www.w3.org/2000/svg" xmlns:xlink="http://www.w3.org/1999/xlink" viewBox="0 0 69.3 53.3" width="69.3" height="53.3">
	<path d="M3.3 52.8A3 3 0 0 1 2 51.5c-.2-.6-.3-4.4-.3-11.9 0-9.4.1-11 .5-11.8C2.7 26.8 4 26 5 26c.6 0 .5-.2-1-1.7A13.7 13.7 0 0 1 0 14.3a14 14 0 0 1 4-10A14.4 14.4 0 0 1 24.4 4l1.5 1.5L27.2 4c6.5-6.3 17-5.2 22.1 2.4 1.4 2 2 4.2 2.2 7 .3 4.3-1.1 8-4 10.8L45.8 26l1.1.2c.8 0 1.3.3 1.8 1l.8.7v11.7c0 12.6 0 12.7-1.5 13.4-.5.2-6 .3-22.3.3-20.8 0-21.6 0-22.4-.5zm43.3-13.5v-8H4.8v16h41.8zm-28-15c4.5-2.1 7.2-7 6.3-11.5-.7-3.7-3-6.6-6.3-8.2-1.6-.8-2-.9-4.2-.9-2.8 0-4.5.5-6.5 2a11 11 0 0 0-3.7 12.8c.7 1.9 3.1 4.5 5 5.4 3.1 1.6 6.5 1.7 9.4.4zm-6-7.1c-2-1.2-2-4.8.3-5.8 1-.5 1.7-.5 2.8 0 1.6.7 2.2 3 1.4 4.6-.8 1.5-3 2-4.5 1.2zm29 7c4.5-2 7.2-6.9 6.3-11.4-.7-3.7-2.9-6.6-6.3-8.2-1.6-.8-2-.9-4.2-.9-2.8 0-4.5.5-6.5 2a11 11 0 0 0-3.7 12.8c.8 1.9 3.2 4.5 5 5.4 3.2 1.6 6.5 1.7 9.5.4zM35.5 17c-.6-.4-1-1-1.2-1.7-.3-1-.3-1.2.1-2.3 1-2.2 3.6-2.7 5.3-.8 2.7 2.8-1 7-4.2 4.8zM63 50a81.3 81.3 0 0 1-5.1-3.6l-.8-.7V34l.8-.8c1-1 9.5-6.9 10-6.9.3 0 .7.2 1 .5.4.4.4 1.7.4 13 0 11.7 0 12.4-.5 12.8-.2.3-.7.4-1 .4-.2 0-2.4-1.3-4.8-3zM51.9 39.8v-6.6H55v13.2H52z"/>
</svg>