<svg xmlns="http://www.w3.org/2000/svg" xmlns:xlink="http://www.w3.org/1999/xlink" viewBox="0 0 68.79 55.03" width="68.79" height="55.03">
	<path d="M0 0v55.03h68.8V0H0zm56.65 7.64c.13.01.2.11.3.24.47.52.72.28-8.66 8.13a299.15 299.15 0 0 0-5.16 4.36 235.97 235.97 0 0 0-9.4 7.8c-1.19 1.03-3.01 2.55-4.05 3.4a11.86 11.86 0 0 0-1.89 1.72c.01.1.54.76 1.17 1.47l1.16 1.3 1.44-1.16c.8-.64 3.45-2.87 5.91-4.95 2.46-2.07 5.58-4.7 6.93-5.82 3.15-2.6 6.25-5.22 9.18-7.73 3.1-2.65 6.05-5.01 6.25-5.02.1 0 .3.16.47.37.25.3.14.5-.56.99a64.5 64.5 0 0 0-3.03 2.47c-3.45 2.95-7.4 6.28-10.54 8.88a657.3 657.3 0 0 0-5 4.17 53.86 53.86 0 0 1-2.67 2.17c-.33.22-1.52 1.23-2.64 2.25a42.55 42.55 0 0 1-2.64 2.24c-.33.22-1.1.83-1.7 1.36-.92.8-1.09 1.08-.95 1.62.13.53.05.69-.45.82-.34.1-1.42.25-2.4.34-1.61.16-1.8.13-1.8-.3 0-.26-.47-.93-1.05-1.49l-1.06-1 .38-1c.22-.56.52-1.51.68-2.13.3-1.16.5-1.3 1.29-.88a.2.2 0 0 0 .11.02c.05 0 .1-.02.18-.05.95-.36 4.02-2.82 11.04-8.81 4.9-4.2 6.28-5.35 7.1-5.96.9-.68 3.47-2.82 6.98-5.82 3.85-3.3 4.7-4.04 5.08-4zM4.23 12.96h20.12c7.67 0 14.23.05 17.4.12 1.4.05 1.76.13 1.63.25-.47.45-5.43 4.62-13.8 11.59l-6.27 5.22-.8 2.6c-2.27 7.44-2.37 7.85-2.03 8.39.67 1.03 1.04 1.08 4.58.58 7.38-1.05 7.32-1.03 9.28-2.66.98-.8 5.4-4.5 9.85-8.22 4.43-3.72 10-8.37 12.36-10.33l4.3-3.57v33.6H4.23V12.97z"/>
</svg>