<svg id="illustration-five-stars" xmlns="http://www.w3.org/2000/svg" xmlns:xlink="http://www.w3.org/1999/xlink" viewBox="0 0 193 48" width="193" height="48" fill="#f9b10f">
	<path d="M19.1 38l1.7-5.4c1.9-5.4 2-5.2-5-10.2-2.8-1.9-2.7-1.9 3-2h5.8l1.4-5c.7-2.8 1.6-5 2-5 .3 0 1.2 2.2 1.9 5l1.3 5H37c6.4 0 6.4-.3-1.1 5.4-2.5 1.8-2.5 2-.8 6.8.9 2.7 1.6 5 1.6 5.4 0 .2-2-1.1-4.4-3L28 31.3l-4.4 3.5c-2.4 2-4.4 3.3-4.4 3zM53.7 38l1.7-5.4c1.9-5.4 2-5.2-5-10.2-2.8-1.9-2.8-1.9 3-2h5.8l1.3-5c.8-2.8 1.7-5 2-5 .4 0 1.3 2.2 2 5l1.3 5h5.8c6.3 0 6.4-.3-1.1 5.4-2.5 1.8-2.5 2-.9 6.8 1 2.7 1.7 5 1.7 5.4 0 .2-2-1.1-4.4-3l-4.4-3.6-4.4 3.5c-2.4 2-4.4 3.3-4.4 3zM88.3 38c0-.3.7-2.7 1.7-5.4 1.8-5.4 2-5.2-5.1-10.2-2.7-1.9-2.7-1.9 3.1-2h5.8l1.3-5c.7-2.8 1.6-5 2-5 .3 0 1.2 2.2 2 5l1.3 5h5.8c6.3 0 6.4-.3-1.2 5.4-2.4 1.8-2.4 2-.8 6.8 1 2.7 1.7 5 1.7 5.4 0 .2-2-1.1-4.4-3l-4.4-3.6-4.4 3.5c-2.4 2-4.4 3.3-4.4 3zM122.8 38l1.8-5.4c1.8-5.4 2-5.2-5.1-10.2-2.7-1.9-2.7-1.9 3-2h5.9l1.3-5c.7-2.8 1.6-5 2-5 .3 0 1.2 2.2 2 5l1.3 5h5.8c6.3 0 6.4-.3-1.2 5.4-2.4 1.8-2.5 2-.8 6.8 1 2.7 1.7 5 1.7 5.4 0 .2-2-1.1-4.4-3l-4.4-3.6-4.4 3.5c-2.5 2-4.5 3.3-4.5 3zM156.4 38l1.7-5.4c2-5.4 2-5.2-5-10.2-2.7-1.9-2.7-1.9 3-2h5.9l1.3-5c.7-2.8 1.6-5 2-5 .3 0 1.2 2.2 2 5l1.3 5h5.8c6.3 0 6.4-.3-1.2 5.4-2.4 1.8-2.5 2-.8 6.8 1 2.7 1.7 5 1.7 5.4 0 .2-2-1.1-4.4-3l-4.4-3.6-4.4 3.5c-2.5 2-4.5 3.3-4.5 3z"/>
</svg>