<svg xmlns="http://www.w3.org/2000/svg" xmlns:xlink="http://www.w3.org/1999/xlink" viewBox="0 0 65.9 55.8" width="65.9" height="55.8">
	<path d="M0 0v55.8h65.9V0H0zm32.7 3.2c14.7 0 29.4 0 29.8.2.5.3.5.9.5 24.3 0 18.4-.1 24.1-.3 24.4-.3.2-7.3.3-29.8.3-28.8 0-29.4 0-29.7-.5-.4-.8-.4-48 0-48.4.2-.2 14.9-.3 29.5-.3zm-7.2 9c-4.3 0-6.4 2-6.7 6.1a6.6 6.6 0 0 1-.4 2.5l-.1.5v.8c0 .9.2 1.8.7 2.6l.4.7c.2.1.5.6.7 1.1l.3.5c.1.6.4 1.1.6 1.3h.1c.1.4.1.7-.1.9-.6.4-2 1-4.7 2.2a13.9 13.9 0 0 0-3.5 2l-.6.7a10.4 10.4 0 0 0-2 5.3l-.2 1.4v.1l1.3.5a48.9 48.9 0 0 0 15.9 1.4 38.4 38.4 0 0 0 13.1-1.7l.5-.2v-1l-.1-.7a8 8 0 0 0-3.4-6.5 8.6 8.6 0 0 0-.6-.4h-.1l-.3-.2a158 158 0 0 1-6.6-3.2v-.2-.1c.3-.2.7-1 1-1.5.2-.6.7-1.5 1.2-2.2.8-1.2 1.2-3.5.7-4l-.4-2.4c-.3-2.5-.5-3.4-1.6-4.4l-1-.9c-1-.7-2.2-1-4-1zm17.7.8c-2.1 0-3 .3-4 1.5-1.1 1.1-1.4 1.9-1.5 3.6 0 .8-.2 1.7-.3 2v.5c-.1.5 0 1 0 1.6.2.6.4 1.2.7 1.6l1.2 2 .2.4.2 1-2 .9a47 47 0 0 1-3.6 1.6c.1.2.6.4 1.8.9 1.1.5 2.5 1.3 3 1.9a7 7 0 0 1 1.4 1.7c.6 1 1.2 2.4 1.4 3.4l.2 1h.2v.1h3.3c3.9 0 6.8-.4 9-1l1.6-.5v-1.3-.3-.6c0-1.5-.6-2.8-1.6-3.9l-.5-.6a5 5 0 0 0-.7-.4 62 62 0 0 1-5.1-2.5l-1.2-.6.1-.4.6-1c1.7-3 1.9-3.4 1.9-4.4V21v-.2-.2l-.3-.6-.2-1.7V18c0-1.8-.4-2.7-1.5-3.8-1.1-1-2-1.2-4.3-1.2z"/>
</svg>