<svg xmlns="http://www.w3.org/2000/svg" xmlns:xlink="http://www.w3.org/1999/xlink" viewBox="0 0 65.9 55.8" width="65.9" height="55.8">
	<path d="M0 28V0h65.9v55.8H0zm55.6 6.7L55.4 24l-.2-1.2h-5.1l-.2 1c-.4 2.6-3.5 4.2-6 3a3.9 3.9 0 0 1-2.6-3.4c-.1-1.8 0-2.5.9-3.4l.7-.7-1.4-3.5-1.8-4.7-.4-1.2H20.7L2 9.8v34.4h53.5zm-40.3 4a216 216 0 0 1 3.6-12l.6-2H21l1.5-.1-.4 1.1-2.2 7.2-1.7 6h-1.4l-1.5-.1zm-4.1-3.5l-3.3-2 .1-1.8v-1.9l3.4-2 3.3-2V29c-.2 0-1 .6-2 1.3l-1.9 1.1 2 1.3 2 1.2v1.7c0 1 0 1.7-.2 1.7l-3.4-2zm11.9.4v-1.8l2-1.2 1.9-1.2-2-1.2-2-1.2v-1.7c0-2-.2-2 3.8.4l2.8 1.8v3.8l-3 2-3.4 2c-.1 0-.2-.7-.1-1.7zm23.3-12l.4-.8c0-.6-.6-1.4-1.2-1.4-.5 0-1.2.8-1.2 1.4 0 .5.7 1.3 1.2 1.3l.8-.4zm14 0c.8-.7.3-2.2-.9-2.2-.6 0-1.3.7-1.3 1.4 0 .6.7 1.3 1.3 1.3.3 0 .7-.2 1-.4zM49 14.6l-.1-1.6-.2-1h-2.3c-1.3 0-2.4.1-2.4.2l.6 1.6.5 1.4h2c1.8 0 2 0 2-.6zm6-1v-1.6h-4.6v.8l.1 1.6.2.8h4.1zm5.9 0l.5-1.6H59c-2.6 0-2.6 0-2.6 2v1.2h3.9zM48.4 8.7V7.1h-3.2c-1.7 0-3.1.1-3.1.2l.5 1.6.6 1.4h5.2zm6.7.8l.2-1.6v-.8H50v1.5c0 .7 0 1.4.2 1.5 0 .1 1.2.2 2.5.2H55zm7-.3l.5-1.6c.1-.4-.2-.5-2.7-.5h-3l-.1 1c-.4 2.3-.5 2.2 2.4 2.2h2.6z"/>
</svg>