<svg xmlns="http://www.w3.org/2000/svg" xmlns:xlink="http://www.w3.org/1999/xlink" viewBox="0 0 70.4 56.9" width="70.4" height="56.9">
	<path d="M0 28.4V0h70.4v56.9H0zm68 4.4V14h-2.3l.1 3c.1 3.5-.2 5.4-1.5 8.3A19 19 0 0 1 37 33.8c-1.6-1-1.7-1-2.7-.7-1.3.4-3.3 2-3.3 2.6 0 .9-1.1 2-8.2 8.2l-8 7-.6.7H68zm-49.5 2.4a33 33 0 0 1 7.5-5c.7.2 3.2-1.6 3.8-2.7.4-.8.3-1-.4-2.7a16.9 16.9 0 0 1-1.3-8V14H9v28.1l1.3-.9 8.2-6zm32.3-3.9c3-.9 6.8-3.7 8.1-6l.7-1c.1 0 .2 0 0-.2 0-.2 0-.3.2-.3s.3 0 .2-.1c0-.1 0-.8.4-1.4.5-1 .6-1.8.6-4.6s-.1-3.5-.6-4.5c-.3-.7-.5-1.3-.4-1.4 0 0 0-.2-.2-.2s-.2 0-.1-.2V11c-.2 0-.5-.4-.8-1-.3-.4-1.2-1.6-2.1-2.5-2.7-2.7-6-4-10-3.9-1.2 0-2.6 0-3 .2-1.3.2-4.7 2-5.8 3-1 .8-1.5 1.4-3.2 3.5-.2.2-.3.5-.2.6l-.2.1c-.2 0-.2.1-.1.3 0 .1 0 .2-.2.2l-.2.2-.4 1.6c-1 3.1-1 5.5 0 8.7.3.7.5 1.4.4 1.5 0 .1 0 .2.2.2s.3.1.2.3c-.1.1-.1.2 0 .2s.5.5.7 1a16 16 0 0 0 8.3 6.2c1.7.4 6 .3 7.5-.2zm-40.2-20c.4-.6.1-1.2-.5-1.2s-1 .5-.7 1.1c.2.6.8.6 1.2 0zm2.8-.5c0-.5-.2-.6-.7-.6-.7 0-1 .8-.5 1.2.6.4 1.2.1 1.2-.6zm2.7.5c.4-.5 0-1.2-.6-1.2-.4 0-.7.1-.8.4-.2.5.3 1.1.8 1.1l.6-.3z"/>
</svg>