<svg id="logo-web3-marketing" xmlns="http://www.w3.org/2000/svg" xmlns:xlink="http://www.w3.org/1999/xlink" viewBox="0 0 45 45" width="45" height="45">
	<path id="logo-web3-marketing-circle" d="M39.29 15.88A18.06 18.06 0 0 1 22.5 40.55c-9.95 0-18.04-8.09-18.04-18.04A18.06 18.06 0 0 1 30.2 6.19a7.8 7.8 0 0 1 2.36-3.8A22.52 22.52 0 0 0 0 22.5C0 34.9 10.1 45 22.5 45a22.53 22.53 0 0 0 20.74-31.22 7.8 7.8 0 0 1-3.95 2.1z"/>

	<path id="logo-web3-marketing-text" d="M29.03 14.43V27.1a2.26 2.26 0 0 1-4.51 0v-9.36h-4.08v9.36a2.26 2.26 0 0 1-4.51 0V14.43H11.5V27.1a6.5 6.5 0 0 0 10.98 4.72 6.5 6.5 0 0 0 10.98-4.73V14.44h-4.43zM40.77 7.6a2.3 2.3 0 0 0 .79-1.84c0-.74-.3-1.76-.92-2.27a3.74 3.74 0 0 0-2.37-.83 3.7 3.7 0 0 0-2.26.72c-.5.38-.78.98-.87 1.87l-.03.23v.06h.05l.23.03 1.35.18.23.03h.06v-.06l.03-.23c.08-.66.53-1.02 1.26-1.02.68 0 1.12.54 1.12 1.4 0 .46-.15 1-1.35 1H37.42v1.46h.67c1.2 0 1.35.55 1.35 1.02 0 .85-.44 1.4-1.12 1.4-.73 0-1.18-.37-1.26-1.03l-.02-.23-.01-.06h-.06l-.23.04-1.35.17-.23.03h-.05v.06l.03.23c.09.9.37 1.5.87 1.87a3.7 3.7 0 0 0 2.26.72c.87 0 1.69-.29 2.37-.83.63-.5.92-1.53.92-2.27 0-.78-.27-1.4-.8-1.84z"/>
</svg>