<svg xmlns="http://www.w3.org/2000/svg" xmlns:xlink="http://www.w3.org/1999/xlink" viewBox="0 0 16.7 16.7" width="100" height="100">
	<path id="logo-web3-marketing-with-shadow-background" fill="#c30000" d="M-.1 0h16.8v16.6H-.1z"/>

	<path id="logo-web3-marketing-with-shadow-shadow" d="M14.1 5.4l3.6 6.2-1 5h-9L3.4 12l10.8-6.6zm.8 3a6 6 0 0 1-3.8 5.6c-2.2 1-4.9.7-6.7-.9-2-1.7-3-4.8-1.7-7.3 1.2-2.5 4-3.8 6.7-3.5 3 .3 5.6 3 5.5 6.1z" fill="#9e0001"/>

	<g id="logo-web3-marketing-with-shadow-web3" fill="#fff">
		<path d="M12.8 6.5a4.9 4.9 0 0 1-4.6 6.7 4.9 4.9 0 0 1-4.9-5 4.9 4.9 0 0 1 7-4.4 2.1 2.1 0 0 1 .7-1A6.1 6.1 0 0 0 2 8.3c0 3.3 2.8 6 6.1 6A6.1 6.1 0 0 0 14 6a2.1 2.1 0 0 1-1.1.6z"/>

		<path d="M10 6v3.5a.6.6 0 0 1-1.2 0V7H7.7v2.5a.6.6 0 0 1-1.2 0V6.1H5.2v3.4a1.8 1.8 0 0 0 3 1.3 1.8 1.8 0 0 0 3-1.3V6.1H10zm3.2-1.8a.6.6 0 0 0 .2-.5c0-.2 0-.5-.2-.6a1 1 0 0 0-.7-.2 1 1 0 0 0-.6.2c-.1 0-.2.2-.2.5l.4.1c.1-.2.2-.3.4-.3s.3.1.3.4c0 0 0 .2-.3.2h-.2v.4h.2c.3 0 .3.2.3.3 0 .2 0 .4-.3.4-.2 0-.3-.1-.3-.3h-.5c0 .3 0 .5.2.6a1 1 0 0 0 .6.2c.2 0 .5-.1.7-.3l.2-.6c0-.2 0-.4-.2-.5z"/>
	</g>
</svg>